<svg xmlns="http://www.w3.org/2000/svg" viewBox="0 0 800 500">
  <!-- Background -->
  <rect width="800" height="500" fill="#f8f9fa" />
  
  <!-- Title -->
  <text x="400" y="40" font-family="Arial" font-size="24" text-anchor="middle" font-weight="bold">High Level Architecture - Flask App on GKE</text>
  
  <!-- Internet Cloud -->
  <ellipse cx="150" cy="120" rx="100" ry="50" fill="#e1f5fe" stroke="#0288d1" stroke-width="2" />
  <text x="150" y="125" font-family="Arial" font-size="16" text-anchor="middle">Internet</text>
  
  <!-- Google Cloud Platform Box -->
  <rect x="100" y="200" width="600" height="250" fill="#e8f5e9" stroke="#2e7d32" stroke-width="2" rx="10" ry="10" />
  <text x="400" y="225" font-family="Arial" font-size="18" text-anchor="middle" font-weight="bold">Google Cloud Platform</text>
  
  <!-- Cloud Load Balancer -->
  <rect x="150" y="260" width="150" height="60" fill="#ffffff" stroke="#0288d1" stroke-width="2" rx="5" ry="5" />
  <text x="225" y="295" font-family="Arial" font-size="14" text-anchor="middle">Cloud Load Balancer</text>
  
  <!-- GKE Cluster Box -->
  <rect x="350" y="250" width="300" height="170" fill="#f3e5f5" stroke="#7b1fa2" stroke-width="2" rx="5" ry="5" />
  <text x="500" y="275" font-family="Arial" font-size="16" text-anchor="middle" font-weight="bold">GKE Cluster</text>
  
  <!-- Flask App Pods -->
  <rect x="380" y="300" width="100" height="60" fill="#ffffff" stroke="#f44336" stroke-width="2" rx="5" ry="5" />
  <text x="430" y="330" font-family="Arial" font-size="12" text-anchor="middle">Flask App</text>
  <text x="430" y="348" font-family="Arial" font-size="12" text-anchor="middle">Pod 1</text>
  <text x="430" y="366" font-family="Arial" font-size="10" text-anchor="middle">Port 5000</text>
  
  <rect x="520" y="300" width="100" height="60" fill="#ffffff" stroke="#f44336" stroke-width="2" rx="5" ry="5" />
  <text x="570" y="330" font-family="Arial" font-size="12" text-anchor="middle">Flask App</text>
  <text x="570" y="348" font-family="Arial" font-size="12" text-anchor="middle">Pod 2</text>
  <text x="570" y="366" font-family="Arial" font-size="10" text-anchor="middle">Port 5000</text>
  
  <!-- Database -->
  <rect x="640" y="350" width="40" height="60" fill="#ffffff" stroke="#0288d1" stroke-width="2" />
  <circle cx="660" cy="340" r="20" fill="#ffffff" stroke="#0288d1" stroke-width="2" />
  <text x="660" y="430" font-family="Arial" font-size="14" text-anchor="middle">Database</text>
  
  <!-- Arrows -->
  <!-- Internet to Load Balancer -->
  <line x1="150" y1="170" x2="225" y2="260" stroke="#000000" stroke-width="2" marker-end="url(#arrowhead)" />
  
  <!-- Load Balancer to Flask Pods -->
  <line x1="300" y1="290" x2="380" y2="320" stroke="#000000" stroke-width="2" marker-end="url(#arrowhead)" />
  <line x1="300" y1="290" x2="520" y2="320" stroke="#000000" stroke-width="2" marker-end="url(#arrowhead)" />
  
  <!-- Flask Pods to Database -->
  <line x1="480" y1="330" x2="640" y2="365" stroke="#000000" stroke-width="2" marker-end="url(#arrowhead)" />
  <line x1="620" y1="330" x2="640" y2="365" stroke="#000000" stroke-width="2" marker-end="url(#arrowhead)" />
  
  <!-- Arrow Marker -->
  <defs>
    <marker id="arrowhead" markerWidth="10" markerHeight="7" refX="9" refY="3.5" orient="auto">
      <polygon points="0 0, 10 3.5, 0 7" fill="#000000" />
    </marker>
  </defs>
</svg>
